<?xml version="1.0" encoding="UTF-8"?>
<svg id="Capa_1" data-name="Capa 1" xmlns="http://www.w3.org/2000/svg" viewBox="0 0 1024 1024">
  <defs>
    <style>
      .cls-1 {
        fill: none;
      }

      .cls-2 {
        fill: #3c3c3b;
      }

      .cls-3 {
        fill: #fff;
      }
    </style>
  </defs>
  <rect class="cls-3" width="1024" height="1024"/>
  <g>
    <path class="cls-1" d="M453.75,656.76c2.26,35.59,13.94,68.01,34.86,96.89-5.76-17.79-9.03-35.61-9.77-53.4-6.46-15.51-14.97-29.97-25.09-43.49Z"/>
    <path class="cls-1" d="M496.33,644.07c1.85,3.24,3.6,6.5,5.26,9.8-1.12-4.93-2.42-9.82-3.89-14.7-.49,1.63-.92,3.27-1.37,4.9Z"/>
    <path class="cls-2" d="M976.8,451.22c-.94-1.14-2.28-1.63-3.44-1.83l-1.96.14c-.14,0-2.86.21-7.74.66-17.82,1.66-64.63,6.75-121.74,18.78,16.2-54.74,25.12-100.7,28.62-120.57,1.17-6.64,1.73-10.36,1.76-10.53l.49-3.34c-.2-1.18-.63-2.27-1.52-2.87-1.04-.71-2.22-.88-3.27-.85l-3.01,1.1c-.13.05-2.53.93-6.8,2.6-19.22,7.49-76.84,31.03-140.91,67.55-3.36-68.13-13.02-125.09-17.32-147.86-1.27-6.72-2.08-10.49-2.11-10.66l-.44-2.04c-.67-1.44-1.65-2.8-3.03-3.1-1.41-.31-2.71.13-3.74.66l-1.73,1.49c-.11.09-2.19,1.9-5.78,5.13-14.66,13.21-55.44,51.15-99.06,102.43-24.68-61.48-50.87-109.84-60.92-127.69-2.66-4.71-4.2-7.33-4.28-7.45l-1.44-2.41c-.98-1.04-2.2-1.95-3.47-1.81-1.27.14-2.24.86-2.96,1.6l-1.57,2.63c-.06.1-1.11,1.87-2.9,5.02-8.19,14.38-32.61,58.71-56.85,116.8-35.76-46.61-68.85-81.87-83.19-96.62-4.68-4.81-7.39-7.46-7.51-7.58l-.3-.29c-1.48-1.17-3.63-2.47-5.37-1.81-1.58.6-2.51,1.98-3.03,3.1l-.41,1.44c-.03.12-.59,2.1-1.53,5.67-4.24,16.19-16.43,65.6-24.81,128.17-46.23-33.18-86.75-56.75-105.09-66.98-6.52-3.63-10.3-5.62-10.46-5.71l-1.06-.55c-1.7-.55-3.67-.83-4.97.14-1.16.87-1.73,2.13-2.03,3.27l.03,2.1c0,.15.06,3.12.28,8.45.92,22.79,4.76,88.94,19.74,164.45-82.11-23.2-153.15-31.77-165.48-33.15h0c-9.82-1.21-8.3,5.27-7.29,7.92.11.27.27.63.47,1.1,4.84,11.2,34.93,79.2,82.97,152.85,48.49,74.35,125.73,169.85,218.41,202.59,22.54,7.96,45.04,11.94,67.43,11.94,30.91,0,61.58-7.68,91.75-22.83l.61.59,2.38-.27c29.68,15,60.06,22.52,90.89,22.52,20.54,0,41.29-3.34,62.16-10.02,93.59-29.98,173.63-123.16,224.3-196.04,42.74-61.49,72.37-119.3,83.41-141.92.36-.73.69-1.41,1.01-2.07,1.12-2.36,2.79-5.9,2.88-6.08.14-.28,2.89-5.53.91-7.93ZM717.95,418.08c-.04-1.14-.09-2.27-.13-3.41,36.32-21.01,70.62-37.83,97.33-49.95,5.06-2.3,10.58,2.2,9.34,7.62-6.73,29.5-16.61,67.36-30.33,107.88-24.32,6.35-50.8,14.33-77.67,24.24,2.14-30.44,2.33-59.93,1.46-86.38ZM491.46,270.06c2.51-5.05,9.71-5.08,12.21-.02,14.91,30.13,33.32,70.68,49.56,116.21-11.88,15.5-23.95,32.32-35.55,50.12-14.77-26-30.57-50.13-45.61-71.3-4.85-6.83-9.72-13.48-14.56-19.95,11.83-28.93,23.77-54.54,33.95-75.05ZM491.44,480.11c-5.07,9.29-9.91,18.73-14.43,28.31-16.9-21.5-35.7-41.7-54.95-60.26,5.21-18.99,11.1-37.58,17.38-55.46,18.53,27.13,36.57,56.66,52,87.41ZM402.92,550.65c1.48-17.26,4.01-34.67,7.33-52.02,17.28,18.58,33.32,38.19,47.17,58.62-3.16,9.64-5.89,19.33-8.13,29.05-14.15-12.98-29.8-24.84-46.37-35.66ZM481.41,762.38c-33.39-24.21-56.56-56.82-69-97.44-5.82-19-9.08-39.14-10.36-59.91,14.85,11.57,28.45,24.12,40.36,37.74-.22,44.51,12.86,84.58,39,119.61ZM347.23,293.08c1.14-5.64,8.22-7.57,12.02-3.25,20.71,23.57,46.67,55.11,72.32,91.51-6.51,18.08-12.92,37.64-18.67,58.13-19.58-18.24-39.37-34.75-57.86-49.13-7.12-5.54-14.2-10.88-21.19-16.02,3.94-30.98,8.85-58.79,13.38-81.25ZM328.78,423.82c24.45,19.57,49.19,41.39,72.14,65.01-3.69,18.19-6.6,36.71-8.41,55.23-21.1-12.94-43.43-24.3-65.91-34.21-.94-29.13.03-58.23,2.18-86.03ZM363.62,700.52c23.5,37.61,55.49,64.44,95.43,80.12-38.71-4.05-73.53-19.42-103.9-46.05-56.36-49.42-90.69-131.1-111.64-210.47,25.16,8.64,50.58,18.73,75.09,30.43,5.65,52.37,18.89,104.14,45.02,145.97ZM214.76,357.55c-.54-5.78,5.75-9.7,10.68-6.63,25.92,16.17,58.76,38.11,92.79,64.58-2.35,27.61-3.66,58.11-2.82,89.54-28.6-12-57.11-21.74-83.25-29.5-9.19-44.86-14.43-86.44-17.4-118ZM352.74,793c-127.55-45.05-227.56-214.14-271.41-300.1-2.2-4.31,1.48-9.26,6.24-8.42,37.64,6.67,89.37,17.8,143.3,35.41,20.21,78.91,55.6,169.07,117.03,222.95,37.86,33.19,82.16,49.93,132.04,49.93.04,0,.09,0,.13,0-41.87,15.22-84.58,15.34-127.34.24ZM372.94,694.72c-23.84-38.15-36.7-85.18-42.6-134.4,21.24,10.74,41.62,22.75,60.35,36.19.83,24.76,4.27,48.92,11.23,71.63,14.2,46.42,41.59,82.97,81.56,109.04-47.36-13.13-84.5-40.77-110.54-82.46ZM453.75,656.76c10.12,13.51,18.63,27.98,25.09,43.49.73,17.79,4.01,35.61,9.77,53.4-20.92-28.88-32.6-61.3-34.86-96.89ZM488.63,631.55c-1.95-2.92-3.98-5.82-6.11-8.69-7.19-9.72-15.22-18.93-23.94-27.66,1.78-8.66,4.01-17.33,6.6-25.99,10.73,17.17,19.81,34.88,26.73,53-1.17,3.11-2.27,6.23-3.29,9.34ZM496.33,644.07c.45-1.63.88-3.27,1.37-4.9,1.46,4.87,2.77,9.77,3.89,14.7-1.65-3.29-3.4-6.56-5.26-9.8ZM484.55,518.28c4-8.74,8.31-17.4,12.86-25.99,10.89,22.97,20.16,46.53,27,70.18-2.15,3.02-4.24,6.07-6.28,9.14-9.43-18.42-20.86-36.25-33.58-53.33ZM523.75,583.2c1.44-2.29,2.89-4.57,4.4-6.83,2.87,11.63,5.13,23.26,6.63,34.84-3.1-9.46-6.8-18.8-11.03-28.01ZM523.8,447.37c10.79-16.76,22.19-33,33.85-48.45,10.58,31.1,19.93,64.2,26.35,97.66-8.94,8.13-17.62,16.56-25.89,25.28-9.51-25.69-21.39-50.77-34.31-74.48ZM586.32,509.41c3.3,19.57,5.52,39.18,6.33,58.51-6,4.35-11.86,8.82-17.49,13.5-3.15-16.02-7.55-32.04-12.93-47.88,7.65-8.27,15.7-16.32,24.09-24.13ZM574,687.54c3.73-14.36,5.92-29.35,6.48-45.01.57-16.05-.59-32.34-3.12-48.67,5-4.34,10.26-8.51,15.62-12.58.27,37.61-5.2,73.86-18.99,106.26ZM593.35,372.08c-1.53-4.1-3.07-8.14-4.62-12.15,24.15-28.78,47.49-53.44,66.24-72.18,3.49-3.49,9.45-1.49,10.13,3.4,4.92,35.41,9.91,83.7,10.44,136.15-17.59,11.3-35.71,23.84-53.51,37.55-8.09-33.38-18.37-65.05-28.68-92.76ZM675.58,440.6c-.13,27.04-1.53,54.96-4.78,82.63-11.98,5.48-23.8,11.39-35.34,17.75-2.25-21.62-5.96-43.22-10.66-64.25,16.52-12.86,33.61-24.93,50.78-36.13ZM626.38,668.14c10.99-35.91,13.26-75.46,10.17-115.26,10.57-5.96,21.46-11.54,32.61-16.78-7.25,52.05-21.48,102.5-46.71,143.65,1.4-3.81,2.73-7.67,3.93-11.62ZM647.42,719.57c2.68-3.33,5.31-6.73,7.84-10.27,37.83-52.95,54.26-124.55,60.25-192.65,24.78-9.28,49.89-17.13,74.24-23.69-29.44,83.08-74.96,174.5-142.32,226.61ZM921.07,477.67c-43.13,78.16-132.38,218.1-244.44,274.8,76.65-56.53,125.27-163.19,152.83-244.21,3.12-9.17,6.03-18.2,8.77-27.06,28.4-6.18,54.34-10.64,75.68-13.8,5.73-.85,9.96,5.21,7.16,10.28Z"/>
  </g>
</svg>