<?xml version="1.0" encoding="UTF-8"?>
<svg id="Capa_1" data-name="Capa 1" xmlns="http://www.w3.org/2000/svg" viewBox="0 0 1920 600">
  <defs>
    <style>
      .cls-1 {
        fill: none;
      }

      .cls-2 {
        fill: #3c3c3b;
      }
    </style>
  </defs>
  <g>
    <path class="cls-1" d="M297.58,391.67c1.57,24.83,9.73,47.44,24.32,67.59-4.02-12.41-6.3-24.84-6.81-37.26-4.51-10.82-10.44-20.91-17.51-30.34Z"/>
    <path class="cls-1" d="M327.29,382.81c1.29,2.26,2.51,4.54,3.67,6.83-.78-3.44-1.69-6.85-2.71-10.25-.34,1.14-.64,2.28-.95,3.42Z"/>
    <path class="cls-2" d="M662.48,248.28c-.66-.8-1.59-1.13-2.4-1.28l-1.37.1c-.1,0-2,.14-5.4.46-12.43,1.16-45.09,4.71-84.93,13.1,11.3-38.19,17.52-70.25,19.96-84.11.81-4.63,1.21-7.23,1.23-7.35l.34-2.33c-.14-.82-.44-1.58-1.06-2-.72-.49-1.55-.61-2.28-.59l-2.1.76c-.09.03-1.76.65-4.74,1.81-13.41,5.23-53.61,21.64-98.3,47.13-2.34-47.53-9.08-87.27-12.08-103.15-.89-4.69-1.45-7.32-1.47-7.44l-.31-1.42c-.47-1-1.15-1.95-2.12-2.16-.98-.21-1.89.09-2.61.46l-1.21,1.04c-.08.06-1.53,1.32-4.03,3.58-10.23,9.22-38.68,35.68-69.11,71.46-17.22-42.89-35.49-76.63-42.5-89.08-1.85-3.29-2.93-5.11-2.98-5.2l-1-1.68c-.68-.73-1.53-1.36-2.42-1.27-.89.1-1.56.6-2.06,1.11l-1.09,1.84c-.04.07-.77,1.31-2.02,3.5-5.71,10.03-22.75,40.96-39.66,81.48-24.94-32.52-48.03-57.12-58.03-67.4-3.27-3.36-5.15-5.21-5.24-5.29l-.21-.2c-1.03-.82-2.54-1.72-3.75-1.26-1.1.42-1.75,1.38-2.11,2.16l-.28,1c-.02.08-.41,1.46-1.06,3.96-2.96,11.3-11.46,45.77-17.31,89.42-32.25-23.15-60.52-39.59-73.32-46.73-4.55-2.54-7.19-3.92-7.3-3.98l-.74-.38c-1.19-.38-2.56-.58-3.47.1-.81.61-1.21,1.49-1.42,2.28l.02,1.46c0,.1.04,2.18.19,5.9.65,15.9,3.32,62.04,13.77,114.72-57.29-16.19-106.84-22.16-115.44-23.12h0c-6.85-.84-5.79,3.68-5.09,5.53.08.19.19.44.33.77,3.38,7.81,24.37,55.25,57.88,106.63,33.83,51.87,87.72,118.49,152.37,141.33,15.72,5.55,31.42,8.33,47.04,8.33,21.56,0,42.96-5.36,64.01-15.93l.43.41,1.66-.19c20.71,10.46,41.9,15.71,63.41,15.71,14.33,0,28.81-2.33,43.36-6.99,65.29-20.92,121.13-85.92,156.48-136.76,29.82-42.9,50.49-83.23,58.19-99.01.25-.51.48-.99.7-1.45.78-1.65,1.95-4.11,2.01-4.24.1-.19,2.01-3.86.63-5.53ZM481.9,225.15c-.03-.8-.06-1.58-.09-2.38,25.34-14.66,49.26-26.39,67.9-34.84,3.53-1.6,7.38,1.53,6.52,5.31-4.69,20.58-11.59,46.99-21.16,75.26-16.97,4.43-35.44,10-54.18,16.91,1.5-21.24,1.63-41.81,1.02-60.26ZM323.89,121.89c1.75-3.52,6.77-3.54,8.52-.02,10.4,21.02,23.25,49.31,34.57,81.07-8.28,10.81-16.71,22.55-24.8,34.96-10.3-18.14-21.33-34.98-31.82-49.74-3.39-4.77-6.78-9.41-10.15-13.92,8.25-20.18,16.58-38.05,23.68-52.35ZM323.88,268.43c-3.54,6.48-6.91,13.07-10.06,19.75-11.79-15-24.91-29.09-38.34-42.04,3.63-13.25,7.75-26.22,12.12-38.69,12.93,18.93,25.51,39.53,36.28,60.98ZM262.12,317.65c1.03-12.04,2.79-24.19,5.11-36.29,12.06,12.96,23.24,26.64,32.91,40.9-2.21,6.72-4.11,13.49-5.67,20.27-9.87-9.06-20.79-17.33-32.35-24.88ZM316.88,465.35c-23.3-16.89-39.46-39.64-48.13-67.97-4.06-13.26-6.34-27.3-7.23-41.8,10.36,8.07,19.84,16.83,28.16,26.33-.16,31.05,8.97,59.01,27.21,83.44ZM223.27,137.96c.79-3.93,5.73-5.28,8.38-2.26,14.45,16.45,32.56,38.44,50.45,63.84-4.54,12.61-9.01,26.26-13.02,40.55-13.66-12.73-27.47-24.25-40.37-34.28-4.97-3.86-9.91-7.59-14.78-11.18,2.75-21.61,6.17-41.01,9.33-56.68ZM210.4,229.17c17.06,13.65,34.31,28.88,50.33,45.35-2.58,12.69-4.61,25.61-5.86,38.53-14.72-9.03-30.3-16.95-45.98-23.87-.65-20.32.02-40.62,1.52-60.02ZM234.71,422.2c16.39,26.24,38.71,44.95,66.57,55.9-27-2.83-51.3-13.55-72.49-32.12-39.32-34.48-63.27-91.46-77.88-146.83,17.55,6.03,35.28,13.06,52.39,21.23,3.94,36.53,13.18,72.65,31.41,101.83ZM130.86,182.93c-.38-4.03,4.01-6.77,7.45-4.62,18.08,11.28,40.99,26.58,64.73,45.05-1.64,19.26-2.55,40.54-1.97,62.47-19.95-8.37-39.84-15.17-58.08-20.58-6.41-31.3-10.07-60.31-12.14-82.32ZM227.11,486.71c-88.98-31.43-158.75-149.39-189.34-209.35-1.53-3.01,1.03-6.46,4.36-5.87,26.26,4.65,62.35,12.42,99.97,24.7,14.1,55.05,38.78,117.95,81.64,155.53,26.41,23.16,57.32,34.83,92.11,34.83.03,0,.06,0,.09,0-29.21,10.62-59,10.7-88.83.16ZM241.21,418.15c-16.63-26.62-25.6-59.42-29.72-93.76,14.82,7.49,29.04,15.87,42.1,25.25.58,17.27,2.98,34.13,7.83,49.97,9.91,32.38,29.02,57.88,56.9,76.07-33.04-9.16-58.95-28.44-77.12-57.52ZM297.58,391.67c7.06,9.43,13,19.52,17.51,30.34.51,12.41,2.8,24.84,6.81,37.26-14.59-20.15-22.75-42.76-24.32-67.59ZM321.92,374.08c-1.36-2.04-2.78-4.06-4.26-6.07-5.02-6.78-10.62-13.2-16.7-19.3,1.24-6.04,2.8-12.09,4.61-18.13,7.49,11.98,13.82,24.33,18.65,36.98-.82,2.17-1.58,4.34-2.29,6.52ZM327.29,382.81c.31-1.14.61-2.28.95-3.42,1.02,3.4,1.93,6.82,2.71,10.25-1.15-2.3-2.37-4.58-3.67-6.83ZM319.07,295.06c2.79-6.09,5.8-12.14,8.97-18.13,7.59,16.03,14.06,32.46,18.84,48.96-1.5,2.11-2.96,4.23-4.38,6.38-6.58-12.85-14.55-25.29-23.43-37.2ZM346.41,340.35c1-1.6,2.02-3.19,3.07-4.77,2,8.11,3.58,16.23,4.62,24.31-2.17-6.6-4.74-13.12-7.7-19.54ZM346.45,245.59c7.52-11.69,15.48-23.02,23.61-33.8,7.38,21.7,13.9,44.79,18.39,68.13-6.24,5.67-12.29,11.55-18.06,17.64-6.64-17.92-14.92-35.42-23.93-51.96ZM390.07,288.87c2.3,13.65,3.85,27.33,4.41,40.82-4.19,3.03-8.27,6.16-12.2,9.42-2.2-11.18-5.27-22.35-9.02-33.4,5.34-5.77,10.95-11.38,16.8-16.83ZM381.47,413.14c2.6-10.01,4.13-20.48,4.52-31.4.4-11.2-.41-22.56-2.17-33.95,3.49-3.03,7.16-5.93,10.9-8.78.19,26.24-3.63,51.53-13.25,74.13ZM394.97,193.07c-1.06-2.86-2.14-5.68-3.23-8.48,16.85-20.08,33.13-37.28,46.21-50.36,2.44-2.44,6.59-1.04,7.07,2.37,3.43,24.71,6.91,58.39,7.29,94.98-12.27,7.88-24.91,16.63-37.33,26.19-5.64-23.29-12.82-45.38-20.01-64.71ZM452.34,240.87c-.09,18.86-1.07,38.34-3.33,57.64-8.36,3.82-16.61,7.95-24.66,12.38-1.57-15.08-4.16-30.15-7.43-44.82,11.53-8.97,23.45-17.39,35.42-25.21ZM418.02,399.61c7.67-25.05,9.25-52.64,7.09-80.41,7.37-4.15,14.97-8.05,22.75-11.7-5.06,36.31-14.98,71.51-32.59,100.22.98-2.66,1.9-5.35,2.75-8.1ZM432.69,435.49c1.87-2.32,3.7-4.69,5.47-7.16,26.39-36.94,37.86-86.89,42.03-134.4,17.29-6.48,34.8-11.95,51.79-16.53-20.54,57.96-52.29,121.74-99.29,158.09ZM623.6,266.73c-30.09,54.53-92.35,152.15-170.53,191.71,53.47-39.43,87.39-113.85,106.62-170.37,2.18-6.39,4.21-12.7,6.12-18.88,19.81-4.31,37.91-7.42,52.8-9.63,3.99-.59,6.95,3.63,5,7.17Z"/>
  </g>
  <g>
    <g>
      <path class="cls-2" d="M699.4,187.71h17.65v141.81h59.96v15.52h-77.6v-157.33Z"/>
      <path class="cls-2" d="M780.39,287.63c0-31.89,23.81-60.17,60.59-60.17s60.81,28.28,60.81,60.38-23.81,60.17-60.81,60.17-60.59-28.06-60.59-60.17v-.21ZM795.91,288.06c0,25.94,19.77,45.5,45.07,45.5s45.07-19.56,45.07-45.71-19.56-45.71-45.07-45.71-45.07,19.56-45.07,45.71v.21Z"/>
      <path class="cls-2" d="M934.3,243.2h-22.54v-12.54h22.54v-42.95h15.52v42.95h25.09v12.54h-25.09v101.84h-15.52v-101.84Z"/>
      <path class="cls-2" d="M978.73,287.63c0-31.89,23.81-60.17,60.59-60.17s60.81,28.28,60.81,60.38-23.81,60.17-60.81,60.17-60.59-28.06-60.59-60.17v-.21ZM994.25,288.06c0,25.94,19.77,45.5,45.07,45.5s45.07-19.56,45.07-45.71-19.56-45.71-45.07-45.71-45.07,19.56-45.07,45.71v.21Z"/>
      <path class="cls-2" d="M1185.36,187.71h41.46c14.24,0,24.02,2.55,31.04,7.44,12.76,7.23,17.01,20.41,17.01,32.74,0,18.5-10.42,27.85-21.05,33.38,28.28,8.72,30.19,32.74,30.19,39.97-.21,17.01-8.08,29.77-21.47,36.78-9.35,5.74-18.29,7.01-33.81,7.01h-43.37v-157.33ZM1202.79,255.74h23.81c7.23,0,13.61-.85,18.5-3.19,9.99-5.53,12.76-13.82,12.76-23.38,0-11.48-6.16-19.35-12.76-22.33-4.04-2.13-9.35-3.4-19.56-3.62h-22.75v52.52ZM1202.79,329.52h28.49c6.38,0,13.4-.64,19.13-2.98,9.35-4.04,16.37-12.12,16.58-26.15,0-12.76-6.8-22.11-16.8-26.58-7.01-2.97-12.33-3.19-22.11-3.19h-25.3v58.89Z"/>
      <path class="cls-2" d="M1307.17,187.71h15.73v157.33h-15.73v-157.33Z"/>
      <path class="cls-2" d="M1468.1,345.04h-15.74v-23.6c-8.93,17.22-26.36,26.79-46.77,26.79-37.21,0-59.32-28.92-59.32-60.38,0-33.6,24.45-60.38,59.32-60.38,24.45,0,41.24,14.24,46.77,27.21v-24.03h15.74v114.38ZM1361.8,288.06c.21,20.62,14.46,45.5,45.92,45.5,20.2,0,35.08-11.69,41.24-27.85,2.56-5.53,3.83-11.91,3.83-18.07.21-6.38-1.06-12.76-3.61-18.28-6.38-15.73-21.69-27.43-41.88-27.43-26.37,0-45.5,20.41-45.5,45.92v.21Z"/>
      <path class="cls-2" d="M1498.71,230.66h14.89c0,6.38,0,12.76-.22,20.41,6.59-14.88,22.11-24.03,42.52-23.6,35.51.42,48.05,24.66,48.05,52.51v65.06h-15.52v-61.87c0-24.66-11.06-41.46-36.79-41.03-23.6.21-37.21,14.46-37.21,38.27v64.63h-15.73v-114.38Z"/>
      <path class="cls-2" d="M1745.73,306.34c-7.44,24.24-29.77,41.89-57.19,41.89-38.7,0-61.45-29.77-61.45-60.38,0-33.81,25.73-60.38,60.39-60.38,25.72,0,50.39,15.31,58.25,42.73h-16.16c-7.23-19.35-25.3-28.28-41.46-28.28-13.4,0-22.75,4.04-32.32,12.97-7.65,7.44-12.97,19.77-12.97,32.96,0,27,20.41,45.71,45.07,45.71,21.9-.21,36.57-13.39,41.46-27.21h16.37Z"/>
      <path class="cls-2" d="M1761.24,287.63c0-31.89,23.81-60.17,60.59-60.17s60.81,28.28,60.81,60.38-23.81,60.17-60.81,60.17-60.59-28.06-60.59-60.17v-.21ZM1776.76,288.06c0,25.94,19.77,45.5,45.07,45.5s45.07-19.56,45.07-45.71-19.56-45.71-45.07-45.71-45.07,19.56-45.07,45.71v.21Z"/>
    </g>
    <g>
      <path class="cls-2" d="M707.28,432.22h-5.7l19.79-47.4h5.12l19.6,47.4h-5.77l-5.51-13.32h-22.1l-5.45,13.32ZM723.74,390.78l-9.41,23.76h18.89l-9.48-23.76Z"/>
      <path class="cls-2" d="M814.94,384.82h12.36c7.43,0,10.89.9,13.32,2.43,3.84,2.31,6.47,7.37,6.47,12.75.06,3.2-.83,6.6-2.82,9.29-2.82,3.85-6.21,4.74-10.57,5.19l11.78,17.74h-5.76l-13.39-20.69h1.54c3.33,0,7.94-.06,10.5-2.43,2.5-2.44,3.59-5.32,3.59-8.71s-1.73-7.24-4.67-9.16c-2.37-1.54-5.32-1.73-9.61-1.73h-7.43v42.72h-5.32v-47.4Z"/>
      <path class="cls-2" d="M968.32,433.05c-1.41-.13-2.69-.26-3.84-.45-5.06-.64-7.56-2.24-9.99-3.91-3.39,2.24-8.39,4.42-14.22,4.42-15.18,0-24.85-11.85-24.85-24.53,0-13.58,10.57-24.59,24.72-24.59s24.79,10.89,24.79,24.4c0,9.54-4.61,14.6-6.73,16.97,2.88,1.86,5.44,2.69,10.12,3.2v4.48ZM940.08,388.66c-10.18,0-18.45,7.56-19.08,18.25-.06,2.88.32,4.68.71,5.96,2.18-.7,5.25-1.73,9.67-1.73s8.9,1.09,12.75,3.39c2.44,1.41,3.65,2.43,9.86,7.49,3.78-3.46,5.7-8.32,5.7-13.64,0-11.53-8.77-19.73-19.53-19.73h-.07ZM940.34,428.44c4.48,0,8.39-1.73,10.31-3.14-1.28-1.22-6.15-4.99-6.53-5.38-4.23-2.88-8.58-4.23-13.32-4.23-3.78,0-6.09.83-8.13,1.6,4.48,9.41,13.26,11.14,17.61,11.14h.07Z"/>
      <path class="cls-2" d="M1042.42,384.82v30.04c0,3.59,0,6.34,2.24,9.55,1.67,2.37,4.8,3.97,8.26,3.97s6.53-1.54,8.13-3.91c2.24-3.14,2.24-5.89,2.24-9.61v-30.04h5.25v30.04c.06,5.51-.64,10.95-5.38,14.6-2.63,2.24-6.15,3.59-10.25,3.59-3.33,0-7.49-.96-10.44-3.59-5-4.03-5.38-9.42-5.38-14.6v-30.04h5.32Z"/>
      <path class="cls-2" d="M1142.01,384.82h5.25v47.4h-5.25v-47.4Z"/>
      <path class="cls-2" d="M1228.21,389.5h-11.66v-4.67h28.69v4.67h-11.72v42.72h-5.32v-42.72Z"/>
      <path class="cls-2" d="M1314.48,384.82h26.26v4.67h-21.01v16.46h20.88v4.67h-20.88v16.91h21.01v4.67h-26.26v-47.4Z"/>
      <path class="cls-2" d="M1457.49,419.47c-3.07,7.3-11.34,13.58-21.78,13.58-14.02,0-24.72-10.82-24.72-24.53s10.44-24.53,24.66-24.53c11.72,0,19.08,7.81,21.84,13.83h-5.7c-1.61-2.82-6.98-9.16-16.14-9.16-11.08,0-19.41,8.77-19.41,19.79s8.39,19.92,19.41,19.92c9.93,0,14.99-7.11,16.14-8.9h5.7Z"/>
      <path class="cls-2" d="M1535.88,389.5h-11.66v-4.67h28.69v4.67h-11.72v42.72h-5.31v-42.72Z"/>
      <path class="cls-2" d="M1627.33,384.82v30.04c0,3.59,0,6.34,2.24,9.55,1.66,2.37,4.8,3.97,8.26,3.97s6.53-1.54,8.13-3.91c2.24-3.14,2.24-5.89,2.24-9.61v-30.04h5.25v30.04c.07,5.51-.64,10.95-5.38,14.6-2.63,2.24-6.15,3.59-10.25,3.59-3.33,0-7.5-.96-10.44-3.59-4.99-4.03-5.38-9.42-5.38-14.6v-30.04h5.31Z"/>
      <path class="cls-2" d="M1726.47,384.82h12.36c7.43,0,10.89.9,13.32,2.43,3.85,2.31,6.47,7.37,6.47,12.75.06,3.2-.83,6.6-2.82,9.29-2.82,3.85-6.21,4.74-10.57,5.19l11.78,17.74h-5.76l-13.39-20.69h1.54c3.33,0,7.94-.06,10.5-2.43,2.5-2.44,3.59-5.32,3.59-8.71s-1.73-7.24-4.67-9.16c-2.37-1.54-5.31-1.73-9.61-1.73h-7.43v42.72h-5.32v-47.4Z"/>
      <path class="cls-2" d="M1830.03,432.22h-5.7l19.79-47.4h5.12l19.6,47.4h-5.76l-5.51-13.32h-22.1l-5.45,13.32ZM1846.49,390.78l-9.41,23.76h18.89l-9.48-23.76Z"/>
    </g>
    <g>
      <path class="cls-1" d="M1276.11,56.73c1.65,26.04,10.2,49.75,25.5,70.88-4.21-13.02-6.61-26.05-7.15-39.07-4.73-11.34-10.95-21.93-18.36-31.81Z"/>
      <path class="cls-1" d="M1307.26,47.45c1.36,2.37,2.64,4.76,3.84,7.17-.82-3.6-1.77-7.19-2.84-10.75-.36,1.19-.67,2.39-1,3.59Z"/>
    </g>
    <g>
      <path class="cls-1" d="M1276.11,56.73c1.65,26.04,10.2,49.75,25.5,70.88-4.21-13.02-6.61-26.05-7.15-39.07-4.73-11.34-10.95-21.93-18.36-31.81Z"/>
      <path class="cls-1" d="M1307.26,47.45c1.36,2.37,2.64,4.76,3.84,7.17-.82-3.6-1.77-7.19-2.84-10.75-.36,1.19-.67,2.39-1,3.59Z"/>
    </g>
    <g>
      <path class="cls-1" d="M1276.11,56.73c1.65,26.04,10.2,49.75,25.5,70.88-4.21-13.02-6.61-26.05-7.15-39.07-4.73-11.34-10.95-21.93-18.36-31.81Z"/>
      <path class="cls-1" d="M1307.26,47.45c1.36,2.37,2.64,4.76,3.84,7.17-.82-3.6-1.77-7.19-2.84-10.75-.36,1.19-.67,2.39-1,3.59Z"/>
    </g>
  </g>
</svg>